<svg width="32" height="32" viewBox="0 0 47 47" fill="none" xmlns="http://www.w3.org/2000/svg">
<path d="M23.5996 5.53125C20.0457 5.53125 16.5717 6.5851 13.6167 8.55953C10.6618 10.534 8.35867 13.3403 6.99866 16.6237C5.63864 19.907 5.2828 23.5199 5.97613 27.0055C6.66946 30.4911 8.38082 33.6929 10.8938 36.2058C13.4068 38.7188 16.6085 40.4302 20.0941 41.1235C23.5797 41.8168 27.1926 41.461 30.476 40.101C33.7593 38.7409 36.5657 36.4378 38.5401 33.4829C40.5145 30.528 41.5684 27.0539 41.5684 23.5C41.5589 18.7373 39.6627 14.1724 36.295 10.8047C32.9272 7.43693 28.3623 5.54075 23.5996 5.53125ZM23.5996 40.0312C20.33 40.0312 17.1339 39.0617 14.4153 37.2452C11.6968 35.4288 9.57794 32.8469 8.32673 29.8262C7.07552 26.8055 6.74815 23.4817 7.38601 20.2749C8.02387 17.0682 9.59832 14.1226 11.9103 11.8106C14.2222 9.4987 17.1678 7.92426 20.3745 7.28639C23.5813 6.64853 26.9052 6.97591 29.9259 8.22712C32.9465 9.47833 35.5284 11.5972 37.3449 14.3157C39.1613 17.0343 40.1309 20.2304 40.1309 23.5C40.1261 27.8829 38.3829 32.0849 35.2837 35.1841C32.1845 38.2833 27.9825 40.0265 23.5996 40.0312ZM30.0684 27.0938C30.0636 28.236 29.6078 29.3302 28.8 30.1379C27.9923 30.9457 26.8982 31.4015 25.7559 31.4062H24.3184V33.5625C24.3184 33.7531 24.2426 33.9359 24.1079 34.0707C23.9731 34.2055 23.7902 34.2812 23.5996 34.2812C23.409 34.2812 23.2262 34.2055 23.0914 34.0707C22.9566 33.9359 22.8809 33.7531 22.8809 33.5625V31.4062H19.2871C19.0965 31.4062 18.9137 31.3305 18.7789 31.1957C18.6441 31.0609 18.5684 30.8781 18.5684 30.6875C18.5684 30.4969 18.6441 30.3141 18.7789 30.1793C18.9137 30.0445 19.0965 29.9688 19.2871 29.9688H25.7559C26.5184 29.9688 27.2496 29.6658 27.7888 29.1267C28.328 28.5875 28.6309 27.8562 28.6309 27.0938C28.6309 26.3313 28.328 25.6 27.7888 25.0608C27.2496 24.5217 26.5184 24.2188 25.7559 24.2188H21.4434C20.2996 24.2188 19.2027 23.7644 18.394 22.9556C17.5852 22.1469 17.1309 21.05 17.1309 19.9062C17.1309 18.7625 17.5852 17.6656 18.394 16.8569C19.2027 16.0481 20.2996 15.5938 21.4434 15.5938H22.8809V13.4375C22.8809 13.2469 22.9566 13.0641 23.0914 12.9293C23.2262 12.7945 23.409 12.7188 23.5996 12.7188C23.7902 12.7188 23.9731 12.7945 24.1079 12.9293C24.2426 13.0641 24.3184 13.2469 24.3184 13.4375V15.5938H27.9121C28.1027 15.5938 28.2856 15.6695 28.4204 15.8043C28.5551 15.9391 28.6309 16.1219 28.6309 16.3125C28.6309 16.5031 28.5551 16.6859 28.4204 16.8207C28.2856 16.9555 28.1027 17.0312 27.9121 17.0312H21.4434C20.6809 17.0312 19.9496 17.3342 19.4104 17.8733C18.8713 18.4125 18.5684 19.1438 18.5684 19.9062C18.5684 20.6687 18.8713 21.4 19.4104 21.9392C19.9496 22.4783 20.6809 22.7812 21.4434 22.7812H25.7559C26.8982 22.786 27.9923 23.2418 28.8 24.0496C29.6078 24.8573 30.0636 25.9515 30.0684 27.0938Z" fill="black"/>
</svg>
